HIERARCHY
ROOT root
{
	OFFSET 0.000000 0.000000 0.000000
	CHANNELS 6 Xposition Yposition Zposition Zrotation Yrotation Xrotation
	JOINT lhip
	{
		OFFSET 0.058581 -0.082280 -0.017664
		CHANNELS 3 Zrotation Yrotation Xrotation
		JOINT lknee
		{
			OFFSET 0.043451 -0.386469 0.008037
			CHANNELS 3 Zrotation Yrotation Xrotation
			JOINT lankle
			{
				OFFSET -0.014790 -0.426874 -0.037428
				CHANNELS 3 Zrotation Yrotation Xrotation
				JOINT ltoe
				{
					OFFSET 0.041054 -0.060286 0.122042
					CHANNELS 3 Zrotation Yrotation Xrotation
					End Site
					{
						OFFSET 0.000000 0.000000 0.000000
					}
				}
			}
		}
	}
	JOINT rhip
	{
		OFFSET -0.060310 -0.090513 -0.013543
		CHANNELS 3 Zrotation Yrotation Xrotation
		JOINT rknee
		{
			OFFSET -0.043257 -0.383688 -0.004843
			CHANNELS 3 Zrotation Yrotation Xrotation
			JOINT rankle
			{
				OFFSET 0.019056 -0.420046 -0.034562
				CHANNELS 3 Zrotation Yrotation Xrotation
				JOINT rtoe
				{
					OFFSET -0.034840 -0.062106 0.130323
					CHANNELS 3 Zrotation Yrotation Xrotation
					End Site
					{
						OFFSET 0.000000 0.000000 0.000000
					}
				}
			}
		}
	}
	JOINT lowerback
	{
		OFFSET 0.004439 0.124404 -0.038385
		CHANNELS 3 Zrotation Yrotation Xrotation
		JOINT upperback
		{
			OFFSET 0.004488 0.137956 0.026820
			CHANNELS 3 Zrotation Yrotation Xrotation
			JOINT chest
			{
				OFFSET -0.002265 0.056032 0.002855
				CHANNELS 3 Zrotation Yrotation Xrotation
				JOINT lowerneck
				{
					OFFSET -0.013390 0.211636 -0.033468
					CHANNELS 3 Zrotation Yrotation Xrotation
					JOINT upperneck
					{
						OFFSET 0.010113 0.088937 0.050410
						CHANNELS 3 Zrotation Yrotation Xrotation
						End Site
						{
							OFFSET 0.000000 0.000000 0.000000
						}
					}
				}
				JOINT lclavicle
				{
					OFFSET 0.071702 0.114000 -0.018898
					CHANNELS 3 Zrotation Yrotation Xrotation
					JOINT lshoulder
					{
						OFFSET 0.122921 0.045205 -0.019046
						CHANNELS 3 Zrotation Yrotation Xrotation
						JOINT lelbow
						{
							OFFSET 0.255332 -0.015649 -0.022946
							CHANNELS 3 Zrotation Yrotation Xrotation
							JOINT lwrist
							{
								OFFSET 0.265709 0.012698 -0.007375
								CHANNELS 3 Zrotation Yrotation Xrotation
								End Site
								{
									OFFSET 0.000000 0.000000 0.000000
								}
							}
						}
					}
				}
				JOINT rclavicle
				{
					OFFSET -0.082954 0.112472 -0.023707
					CHANNELS 3 Zrotation Yrotation Xrotation
					JOINT rshoulder
					{
						OFFSET -0.113228 0.046853 -0.008472
						CHANNELS 3 Zrotation Yrotation Xrotation
						JOINT relbow
						{
							OFFSET -0.260127 -0.014369 -0.031269
							CHANNELS 3 Zrotation Yrotation Xrotation
							JOINT rwrist
							{
								OFFSET -0.269108 0.006794 -0.006027
								CHANNELS 3 Zrotation Yrotation Xrotation
								End Site
								{
									OFFSET 0.000000 0.000000 0.000000
								}
							}
						}
					}
				}
			}
		}
	}
}
MOTION
Frames: 8
Frame Time: 0.033333
1.383643 0.323822 1.000500 -95.151238 -3.091408 93.814585 0.409451 -8.477916 -20.285156 -4.875142 -4.034606 11.645414 7.407379 14.070994 6.152590 0.000000 -0.000000 0.000000 -4.819427 -3.884145 5.989431 -3.751598 2.447857 43.860761 5.383963 -9.771619 20.779565 0.000000 -0.000000 0.000000 -4.764612 11.190739 0.134731 -0.396782 4.875690 2.703488 -1.755214 5.391421 3.348819 1.541871 -11.227154 5.307017 5.178713 -10.798663 9.113519 -13.369050 15.087166 2.899361 -44.737089 7.669459 15.649547 -130.385178 -54.545389 166.759871 22.889374 -15.995044 0.431582 11.410135 -4.269686 -3.013120 66.891804 -1.293623 22.798626 140.100047 64.438270 168.284616 -25.334944 17.077128 -7.493381 
1.303666 0.320531 0.977397 -93.304716 -3.408007 92.056483 -2.319354 -8.145658 -18.332657 -4.419682 -1.411172 21.406027 10.666018 14.269004 -7.134952 0.000000 -0.000000 0.000000 -4.419797 -3.005687 3.601508 -4.512327 1.540008 55.247122 6.534591 -11.147889 14.940437 0.000000 -0.000000 0.000000 -4.976393 9.040800 2.966036 -0.466717 3.641809 1.175987 -1.557443 4.360234 3.851472 0.965165 -12.050186 5.371695 5.122179 -7.471910 7.721464 -15.912067 14.359642 1.948084 -45.276410 6.318956 16.616498 -129.399394 -55.853619 165.381937 23.024056 -15.534854 1.359083 12.915329 -6.009554 -3.832966 64.262672 -7.607689 23.288328 137.175671 66.556121 164.636625 -26.164831 15.622798 -6.758200 
1.227385 0.319428 0.954210 -91.707802 -3.884974 90.865721 -4.463948 -7.608697 -15.229064 -5.736948 -3.256828 28.918420 13.020848 17.435771 -16.525533 0.000000 -0.000000 0.000000 -4.635127 -2.184771 -1.761850 -4.002287 0.738201 66.456212 6.585087 -13.004274 9.115970 0.000000 -0.000000 0.000000 -5.547612 6.987113 5.114570 -0.390413 2.675171 0.392482 -1.847398 2.799342 5.468064 2.341138 -10.742289 2.266965 4.352819 -6.798727 8.444526 -19.835208 12.522645 0.132716 -45.463336 3.004430 17.804095 -127.903564 -58.482274 163.644731 23.841529 -15.736182 2.579238 16.178609 -8.591485 -5.171657 60.475977 -13.145768 22.520504 127.932955 71.164502 155.486846 -26.653191 14.719699 -4.559621 
1.136808 0.320868 0.938369 -90.893037 -3.667383 90.642011 -5.377585 -5.867960 -8.893731 -6.946807 -5.973475 30.595292 13.541919 20.233711 -22.286992 0.000000 -0.000000 0.000000 -4.353595 -0.490274 -12.952905 -3.586010 -0.965508 77.285126 5.895390 -15.785001 1.610603 0.000000 -0.000000 0.000000 -6.140414 3.734910 7.039560 -0.197068 2.089772 -0.368414 -1.961072 0.492474 6.702101 3.428084 -8.635045 -0.407841 4.019287 -5.613720 8.934255 -22.941642 10.627600 -0.554742 -48.860419 -3.252521 18.226053 -127.296602 -61.776395 163.901664 24.396719 -15.708919 3.877688 18.721070 -11.504357 -5.115542 56.723373 -18.133540 20.489643 103.282481 77.319465 131.259348 -27.305433 13.805461 -1.083716 
1.082857 0.321597 0.939040 -89.898302 -2.713429 91.068401 -4.868285 -4.395598 -4.888978 -6.955533 -8.625047 29.840518 12.017672 20.156452 -23.316043 0.000000 -0.000000 0.000000 -3.575189 -0.283121 -20.209123 -4.197681 -2.340425 79.428790 5.721600 -16.461865 -2.303274 0.000000 -0.000000 0.000000 -5.433542 0.978412 7.640644 0.059262 1.277516 -0.693356 -1.782735 -1.018063 7.037522 2.922571 -7.645303 -1.005621 3.751268 -3.627411 8.612061 -23.860587 9.954487 -0.778509 -52.059164 -6.684705 18.398269 -129.109768 -62.848050 165.977867 24.953059 -15.922519 3.728457 18.705060 -13.148378 -4.906329 53.846569 -20.674275 18.887389 93.542878 77.589110 121.233860 -26.749479 14.356286 -0.853747 
1.008944 0.323799 0.951865 -87.542411 -0.957016 91.713269 -2.856157 -2.062776 0.718658 -6.619782 -12.832148 27.543620 8.650139 18.386293 -21.183233 0.000000 -0.000000 0.000000 -2.501979 -0.599379 -27.752395 -4.939089 -5.129109 75.551402 5.806409 -16.257856 -5.953645 0.000000 -0.000000 0.000000 -3.325337 -3.230243 8.128258 0.395876 -0.313683 -0.841365 -1.472971 -3.407342 6.773390 1.057122 -6.561672 -0.795737 3.133782 -0.068354 8.089453 -24.395117 8.967165 -1.107429 -55.130000 -9.956661 18.588072 -132.940120 -63.201281 169.683761 25.631649 -15.872258 3.773731 17.157042 -14.981445 -4.610839 49.863601 -24.073407 17.414419 95.990986 75.948136 122.407330 -26.101145 14.683236 -2.772209 
0.932302 0.327351 0.973041 -85.293954 0.603937 92.792888 0.039977 -0.252137 5.565578 -5.934454 -15.078571 24.118288 4.757859 16.047527 -13.974249 0.000000 -0.000000 0.000000 -2.353665 -0.242553 -32.513830 -4.516800 -9.068523 64.858305 5.545215 -15.397103 -6.787291 0.000000 -0.000000 0.000000 -1.162138 -7.057345 7.169798 0.932687 -2.089439 0.150597 -1.251518 -5.450140 6.051732 -0.943737 -5.102595 -0.040720 2.532132 2.943881 6.583480 -23.644332 8.105197 -1.023099 -56.305958 -12.337963 18.792703 -137.025895 -62.669051 173.466868 26.070702 -16.072918 4.434171 14.919693 -16.486508 -3.946382 47.291932 -26.276508 16.387898 102.550223 74.345793 127.883225 -25.613927 14.669981 -5.000502 
0.852616 0.330863 0.996316 -84.218763 1.892114 94.569257 2.853010 1.203237 8.928524 -4.728721 -14.324414 20.185965 0.756695 14.404805 -2.025768 0.000000 -0.000000 0.000000 -2.375888 0.802199 -34.611983 -2.828144 -12.395596 48.361723 5.317617 -14.451124 -4.804897 0.000000 -0.000000 0.000000 0.846371 -10.068615 4.766165 1.545930 -3.635383 1.672547 -0.903671 -6.793796 4.904219 -2.939843 -3.497912 1.054664 1.927348 5.799135 4.632823 -22.118881 8.134652 -0.312295 -56.137271 -13.357813 18.557044 -140.060510 -61.184858 176.886421 25.797314 -16.742873 4.617587 12.655046 -17.750685 -2.248456 45.914816 -26.422686 15.211829 107.651014 73.066486 133.108854 -25.114933 14.964417 -7.082796 
